<mxfile host="app.diagrams.net" agent="Mozilla/5.0 (Windows NT 10.0; Win64; x64) AppleWebKit/537.36 (KHTML, like Gecko) Chrome/132.0.0.0 Safari/537.36" version="26.0.11">
  <diagram name="Page-1" id="vXumXIeRCvVsAVmtufNV">
    <mxGraphModel dx="1615" dy="875" grid="1" gridSize="10" guides="1" tooltips="1" connect="1" arrows="1" fold="1" page="1" pageScale="1" pageWidth="850" pageHeight="1100" math="0" shadow="0">
      <root>
        <mxCell id="0" />
        <mxCell id="1" parent="0" />
        <mxCell id="ouHFN66C5PXX2ySk9jmh-1" value="Users" style="whiteSpace=wrap;html=1;align=center;" vertex="1" parent="1">
          <mxGeometry x="190" y="160" width="100" height="40" as="geometry" />
        </mxCell>
        <mxCell id="ouHFN66C5PXX2ySk9jmh-3" value="Products" style="whiteSpace=wrap;html=1;align=center;" vertex="1" parent="1">
          <mxGeometry x="410" y="540.0000000000001" width="100" height="40" as="geometry" />
        </mxCell>
        <mxCell id="ouHFN66C5PXX2ySk9jmh-4" value="Cart" style="whiteSpace=wrap;html=1;align=center;" vertex="1" parent="1">
          <mxGeometry x="190" y="390" width="100" height="40" as="geometry" />
        </mxCell>
        <mxCell id="ouHFN66C5PXX2ySk9jmh-5" value="Order" style="whiteSpace=wrap;html=1;align=center;" vertex="1" parent="1">
          <mxGeometry x="560" y="160" width="100" height="40" as="geometry" />
        </mxCell>
        <mxCell id="ouHFN66C5PXX2ySk9jmh-6" value="Order Items" style="whiteSpace=wrap;html=1;align=center;" vertex="1" parent="1">
          <mxGeometry x="570" y="360" width="100" height="40" as="geometry" />
        </mxCell>
        <mxCell id="ouHFN66C5PXX2ySk9jmh-7" value="&lt;u&gt;ID&lt;/u&gt;" style="ellipse;whiteSpace=wrap;html=1;align=center;" vertex="1" parent="1">
          <mxGeometry x="270" y="70" width="100" height="40" as="geometry" />
        </mxCell>
        <mxCell id="ouHFN66C5PXX2ySk9jmh-9" value="Name" style="ellipse;whiteSpace=wrap;html=1;align=center;" vertex="1" parent="1">
          <mxGeometry x="180" y="40" width="100" height="40" as="geometry" />
        </mxCell>
        <mxCell id="ouHFN66C5PXX2ySk9jmh-10" value="Email" style="ellipse;whiteSpace=wrap;html=1;align=center;" vertex="1" parent="1">
          <mxGeometry x="90" y="70" width="100" height="40" as="geometry" />
        </mxCell>
        <mxCell id="ouHFN66C5PXX2ySk9jmh-11" value="Password" style="ellipse;whiteSpace=wrap;html=1;align=center;" vertex="1" parent="1">
          <mxGeometry x="30" y="120" width="100" height="40" as="geometry" />
        </mxCell>
        <mxCell id="ouHFN66C5PXX2ySk9jmh-12" value="Created at" style="ellipse;whiteSpace=wrap;html=1;align=center;" vertex="1" parent="1">
          <mxGeometry x="20" y="180" width="100" height="40" as="geometry" />
        </mxCell>
        <mxCell id="ouHFN66C5PXX2ySk9jmh-13" value="&lt;u&gt;ID&lt;/u&gt;" style="ellipse;whiteSpace=wrap;html=1;align=center;" vertex="1" parent="1">
          <mxGeometry x="470" y="687.4300000000001" width="100" height="40" as="geometry" />
        </mxCell>
        <mxCell id="ouHFN66C5PXX2ySk9jmh-14" value="Name" style="ellipse;whiteSpace=wrap;html=1;align=center;" vertex="1" parent="1">
          <mxGeometry x="400" y="727.4300000000001" width="100" height="40" as="geometry" />
        </mxCell>
        <mxCell id="ouHFN66C5PXX2ySk9jmh-15" value="Description" style="ellipse;whiteSpace=wrap;html=1;align=center;" vertex="1" parent="1">
          <mxGeometry x="170" y="590" width="100" height="40" as="geometry" />
        </mxCell>
        <mxCell id="ouHFN66C5PXX2ySk9jmh-16" value="Price" style="ellipse;whiteSpace=wrap;html=1;align=center;" vertex="1" parent="1">
          <mxGeometry x="210" y="647.4300000000001" width="100" height="40" as="geometry" />
        </mxCell>
        <mxCell id="ouHFN66C5PXX2ySk9jmh-17" value="Stock" style="ellipse;whiteSpace=wrap;html=1;align=center;" vertex="1" parent="1">
          <mxGeometry x="290" y="700" width="100" height="40" as="geometry" />
        </mxCell>
        <mxCell id="ouHFN66C5PXX2ySk9jmh-18" value="Image Url" style="ellipse;whiteSpace=wrap;html=1;align=center;" vertex="1" parent="1">
          <mxGeometry x="580" y="580.0000000000001" width="100" height="40" as="geometry" />
        </mxCell>
        <mxCell id="ouHFN66C5PXX2ySk9jmh-19" value="Created at" style="ellipse;whiteSpace=wrap;html=1;align=center;" vertex="1" parent="1">
          <mxGeometry x="550" y="647.43" width="100" height="40" as="geometry" />
        </mxCell>
        <mxCell id="ouHFN66C5PXX2ySk9jmh-26" value="" style="endArrow=none;html=1;rounded=0;" edge="1" parent="1" source="ouHFN66C5PXX2ySk9jmh-12" target="ouHFN66C5PXX2ySk9jmh-1">
          <mxGeometry relative="1" as="geometry">
            <mxPoint x="340" y="300" as="sourcePoint" />
            <mxPoint x="500" y="300" as="targetPoint" />
          </mxGeometry>
        </mxCell>
        <mxCell id="ouHFN66C5PXX2ySk9jmh-27" value="" style="endArrow=none;html=1;rounded=0;" edge="1" parent="1" source="ouHFN66C5PXX2ySk9jmh-11" target="ouHFN66C5PXX2ySk9jmh-1">
          <mxGeometry relative="1" as="geometry">
            <mxPoint x="90" y="140" as="sourcePoint" />
            <mxPoint x="250" y="140" as="targetPoint" />
          </mxGeometry>
        </mxCell>
        <mxCell id="ouHFN66C5PXX2ySk9jmh-28" value="" style="endArrow=none;html=1;rounded=0;" edge="1" parent="1" source="ouHFN66C5PXX2ySk9jmh-10" target="ouHFN66C5PXX2ySk9jmh-1">
          <mxGeometry relative="1" as="geometry">
            <mxPoint x="133" y="160" as="sourcePoint" />
            <mxPoint x="210" y="178" as="targetPoint" />
          </mxGeometry>
        </mxCell>
        <mxCell id="ouHFN66C5PXX2ySk9jmh-29" value="" style="endArrow=none;html=1;rounded=0;" edge="1" parent="1" source="ouHFN66C5PXX2ySk9jmh-9" target="ouHFN66C5PXX2ySk9jmh-1">
          <mxGeometry relative="1" as="geometry">
            <mxPoint x="172" y="118" as="sourcePoint" />
            <mxPoint x="236" y="170" as="targetPoint" />
          </mxGeometry>
        </mxCell>
        <mxCell id="ouHFN66C5PXX2ySk9jmh-30" value="" style="endArrow=none;html=1;rounded=0;entryX=0.75;entryY=0;entryDx=0;entryDy=0;" edge="1" parent="1" source="ouHFN66C5PXX2ySk9jmh-7" target="ouHFN66C5PXX2ySk9jmh-1">
          <mxGeometry relative="1" as="geometry">
            <mxPoint x="243" y="90" as="sourcePoint" />
            <mxPoint x="270" y="170" as="targetPoint" />
          </mxGeometry>
        </mxCell>
        <mxCell id="ouHFN66C5PXX2ySk9jmh-32" value="" style="endArrow=none;html=1;rounded=0;" edge="1" parent="1" source="ouHFN66C5PXX2ySk9jmh-13" target="ouHFN66C5PXX2ySk9jmh-3">
          <mxGeometry relative="1" as="geometry">
            <mxPoint x="170" y="35.13" as="sourcePoint" />
            <mxPoint x="330" y="35.13" as="targetPoint" />
          </mxGeometry>
        </mxCell>
        <mxCell id="ouHFN66C5PXX2ySk9jmh-33" value="" style="endArrow=none;html=1;rounded=0;" edge="1" parent="1" source="ouHFN66C5PXX2ySk9jmh-14" target="ouHFN66C5PXX2ySk9jmh-3">
          <mxGeometry relative="1" as="geometry">
            <mxPoint x="299" y="-145.87" as="sourcePoint" />
            <mxPoint x="350" y="-94.87" as="targetPoint" />
          </mxGeometry>
        </mxCell>
        <mxCell id="ouHFN66C5PXX2ySk9jmh-34" value="" style="endArrow=none;html=1;rounded=0;" edge="1" parent="1" source="ouHFN66C5PXX2ySk9jmh-15" target="ouHFN66C5PXX2ySk9jmh-3">
          <mxGeometry relative="1" as="geometry">
            <mxPoint x="692" y="280" as="sourcePoint" />
            <mxPoint x="360" y="-84.87" as="targetPoint" />
          </mxGeometry>
        </mxCell>
        <mxCell id="ouHFN66C5PXX2ySk9jmh-35" value="" style="endArrow=none;html=1;rounded=0;" edge="1" parent="1" source="ouHFN66C5PXX2ySk9jmh-16" target="ouHFN66C5PXX2ySk9jmh-3">
          <mxGeometry relative="1" as="geometry">
            <mxPoint x="422" y="-204.87" as="sourcePoint" />
            <mxPoint x="380" y="-94.87" as="targetPoint" />
          </mxGeometry>
        </mxCell>
        <mxCell id="ouHFN66C5PXX2ySk9jmh-36" value="" style="endArrow=none;html=1;rounded=0;" edge="1" parent="1" source="ouHFN66C5PXX2ySk9jmh-17" target="ouHFN66C5PXX2ySk9jmh-3">
          <mxGeometry relative="1" as="geometry">
            <mxPoint x="783.9583467549064" y="358.9921743250362" as="sourcePoint" />
            <mxPoint x="390" y="-84.87" as="targetPoint" />
          </mxGeometry>
        </mxCell>
        <mxCell id="ouHFN66C5PXX2ySk9jmh-38" value="" style="endArrow=none;html=1;rounded=0;" edge="1" parent="1" source="ouHFN66C5PXX2ySk9jmh-19" target="ouHFN66C5PXX2ySk9jmh-3">
          <mxGeometry relative="1" as="geometry">
            <mxPoint x="501" y="-90.87" as="sourcePoint" />
            <mxPoint x="420" y="-84.87" as="targetPoint" />
          </mxGeometry>
        </mxCell>
        <mxCell id="ouHFN66C5PXX2ySk9jmh-39" value="&lt;u&gt;ID&lt;/u&gt;" style="ellipse;whiteSpace=wrap;html=1;align=center;shadow=0;" vertex="1" parent="1">
          <mxGeometry x="90" y="330" width="100" height="40" as="geometry" />
        </mxCell>
        <mxCell id="ouHFN66C5PXX2ySk9jmh-40" value="User ID (FK)" style="ellipse;whiteSpace=wrap;html=1;align=center;" vertex="1" parent="1">
          <mxGeometry x="20" y="370" width="100" height="40" as="geometry" />
        </mxCell>
        <mxCell id="ouHFN66C5PXX2ySk9jmh-41" value="Product ID (FK)" style="ellipse;whiteSpace=wrap;html=1;align=center;" vertex="1" parent="1">
          <mxGeometry x="10" y="430" width="100" height="40" as="geometry" />
        </mxCell>
        <mxCell id="ouHFN66C5PXX2ySk9jmh-42" value="Added at" style="ellipse;whiteSpace=wrap;html=1;align=center;" vertex="1" parent="1">
          <mxGeometry x="30" y="480" width="100" height="40" as="geometry" />
        </mxCell>
        <mxCell id="ouHFN66C5PXX2ySk9jmh-43" value="Quantity" style="ellipse;whiteSpace=wrap;html=1;align=center;" vertex="1" parent="1">
          <mxGeometry x="130" y="510" width="100" height="40" as="geometry" />
        </mxCell>
        <mxCell id="ouHFN66C5PXX2ySk9jmh-45" value="" style="endArrow=none;html=1;rounded=0;" edge="1" parent="1" source="ouHFN66C5PXX2ySk9jmh-39" target="ouHFN66C5PXX2ySk9jmh-4">
          <mxGeometry relative="1" as="geometry">
            <mxPoint x="230" y="340" as="sourcePoint" />
            <mxPoint x="390" y="340" as="targetPoint" />
          </mxGeometry>
        </mxCell>
        <mxCell id="ouHFN66C5PXX2ySk9jmh-55" value="" style="endArrow=none;html=1;rounded=0;" edge="1" parent="1" source="ouHFN66C5PXX2ySk9jmh-4" target="ouHFN66C5PXX2ySk9jmh-40">
          <mxGeometry relative="1" as="geometry">
            <mxPoint x="330" y="370" as="sourcePoint" />
            <mxPoint x="490" y="370" as="targetPoint" />
          </mxGeometry>
        </mxCell>
        <mxCell id="ouHFN66C5PXX2ySk9jmh-56" value="" style="endArrow=none;html=1;rounded=0;" edge="1" parent="1" source="ouHFN66C5PXX2ySk9jmh-41" target="ouHFN66C5PXX2ySk9jmh-4">
          <mxGeometry relative="1" as="geometry">
            <mxPoint x="230" y="415" as="sourcePoint" />
            <mxPoint x="129" y="405" as="targetPoint" />
          </mxGeometry>
        </mxCell>
        <mxCell id="ouHFN66C5PXX2ySk9jmh-57" value="" style="endArrow=none;html=1;rounded=0;" edge="1" parent="1" source="ouHFN66C5PXX2ySk9jmh-4" target="ouHFN66C5PXX2ySk9jmh-42">
          <mxGeometry relative="1" as="geometry">
            <mxPoint x="115" y="452" as="sourcePoint" />
            <mxPoint x="230" y="430" as="targetPoint" />
          </mxGeometry>
        </mxCell>
        <mxCell id="ouHFN66C5PXX2ySk9jmh-58" value="" style="endArrow=none;html=1;rounded=0;" edge="1" parent="1" source="ouHFN66C5PXX2ySk9jmh-43" target="ouHFN66C5PXX2ySk9jmh-4">
          <mxGeometry relative="1" as="geometry">
            <mxPoint x="238" y="440" as="sourcePoint" />
            <mxPoint x="122" y="495" as="targetPoint" />
          </mxGeometry>
        </mxCell>
        <mxCell id="ouHFN66C5PXX2ySk9jmh-60" value="&lt;u&gt;ID&lt;/u&gt;" style="ellipse;whiteSpace=wrap;html=1;align=center;shadow=0;" vertex="1" parent="1">
          <mxGeometry x="660" y="20" width="100" height="40" as="geometry" />
        </mxCell>
        <mxCell id="ouHFN66C5PXX2ySk9jmh-63" value="Created at" style="ellipse;whiteSpace=wrap;html=1;align=center;" vertex="1" parent="1">
          <mxGeometry x="470" y="70" width="100" height="40" as="geometry" />
        </mxCell>
        <mxCell id="ouHFN66C5PXX2ySk9jmh-64" value="Total Price" style="ellipse;whiteSpace=wrap;html=1;align=center;" vertex="1" parent="1">
          <mxGeometry x="710" y="160" width="100" height="40" as="geometry" />
        </mxCell>
        <mxCell id="ouHFN66C5PXX2ySk9jmh-65" value="Status" style="ellipse;whiteSpace=wrap;html=1;align=center;" vertex="1" parent="1">
          <mxGeometry x="550" y="30" width="100" height="40" as="geometry" />
        </mxCell>
        <mxCell id="ouHFN66C5PXX2ySk9jmh-66" value="" style="endArrow=none;html=1;rounded=0;" edge="1" parent="1" source="ouHFN66C5PXX2ySk9jmh-5" target="ouHFN66C5PXX2ySk9jmh-60">
          <mxGeometry relative="1" as="geometry">
            <mxPoint x="707" y="70" as="sourcePoint" />
            <mxPoint x="670" y="62" as="targetPoint" />
          </mxGeometry>
        </mxCell>
        <mxCell id="ouHFN66C5PXX2ySk9jmh-67" value="" style="endArrow=none;html=1;rounded=0;" edge="1" parent="1" source="ouHFN66C5PXX2ySk9jmh-5" target="ouHFN66C5PXX2ySk9jmh-91">
          <mxGeometry relative="1" as="geometry">
            <mxPoint x="670" y="172" as="sourcePoint" />
            <mxPoint x="712.7505824702225" y="116.76887232601689" as="targetPoint" />
          </mxGeometry>
        </mxCell>
        <mxCell id="ouHFN66C5PXX2ySk9jmh-68" value="" style="endArrow=none;html=1;rounded=0;" edge="1" parent="1" source="ouHFN66C5PXX2ySk9jmh-5" target="ouHFN66C5PXX2ySk9jmh-64">
          <mxGeometry relative="1" as="geometry">
            <mxPoint x="670" y="190" as="sourcePoint" />
            <mxPoint x="770" y="190" as="targetPoint" />
          </mxGeometry>
        </mxCell>
        <mxCell id="ouHFN66C5PXX2ySk9jmh-69" value="" style="endArrow=none;html=1;rounded=0;" edge="1" parent="1" source="ouHFN66C5PXX2ySk9jmh-5" target="ouHFN66C5PXX2ySk9jmh-65">
          <mxGeometry relative="1" as="geometry">
            <mxPoint x="670" y="204" as="sourcePoint" />
            <mxPoint x="799" y="239" as="targetPoint" />
          </mxGeometry>
        </mxCell>
        <mxCell id="ouHFN66C5PXX2ySk9jmh-70" value="" style="endArrow=none;html=1;rounded=0;" edge="1" parent="1" source="ouHFN66C5PXX2ySk9jmh-5" target="ouHFN66C5PXX2ySk9jmh-63">
          <mxGeometry relative="1" as="geometry">
            <mxPoint x="653" y="210" as="sourcePoint" />
            <mxPoint x="773" y="283" as="targetPoint" />
          </mxGeometry>
        </mxCell>
        <mxCell id="ouHFN66C5PXX2ySk9jmh-71" value="Order ID" style="ellipse;whiteSpace=wrap;html=1;align=center;shadow=0;" vertex="1" parent="1">
          <mxGeometry x="730" y="310" width="100" height="40" as="geometry" />
        </mxCell>
        <mxCell id="ouHFN66C5PXX2ySk9jmh-74" value="&lt;u&gt;ID&lt;/u&gt;" style="ellipse;whiteSpace=wrap;html=1;align=center;shadow=0;" vertex="1" parent="1">
          <mxGeometry x="730" y="380" width="100" height="40" as="geometry" />
        </mxCell>
        <mxCell id="ouHFN66C5PXX2ySk9jmh-75" value="Product ID (FK)" style="ellipse;whiteSpace=wrap;html=1;align=center;" vertex="1" parent="1">
          <mxGeometry x="730" y="460" width="100" height="40" as="geometry" />
        </mxCell>
        <mxCell id="ouHFN66C5PXX2ySk9jmh-76" value="Quantity" style="ellipse;whiteSpace=wrap;html=1;align=center;" vertex="1" parent="1">
          <mxGeometry x="630" y="490" width="100" height="40" as="geometry" />
        </mxCell>
        <mxCell id="ouHFN66C5PXX2ySk9jmh-78" value="Price" style="ellipse;whiteSpace=wrap;html=1;align=center;" vertex="1" parent="1">
          <mxGeometry x="700" y="240" width="100" height="40" as="geometry" />
        </mxCell>
        <mxCell id="ouHFN66C5PXX2ySk9jmh-79" value="" style="endArrow=none;html=1;rounded=0;" edge="1" parent="1" source="ouHFN66C5PXX2ySk9jmh-76" target="ouHFN66C5PXX2ySk9jmh-6">
          <mxGeometry relative="1" as="geometry">
            <mxPoint x="214" y="451" as="sourcePoint" />
            <mxPoint x="275" y="370" as="targetPoint" />
          </mxGeometry>
        </mxCell>
        <mxCell id="ouHFN66C5PXX2ySk9jmh-80" value="" style="endArrow=none;html=1;rounded=0;" edge="1" parent="1" source="ouHFN66C5PXX2ySk9jmh-75" target="ouHFN66C5PXX2ySk9jmh-6">
          <mxGeometry relative="1" as="geometry">
            <mxPoint x="274" y="581" as="sourcePoint" />
            <mxPoint x="370" y="561" as="targetPoint" />
          </mxGeometry>
        </mxCell>
        <mxCell id="ouHFN66C5PXX2ySk9jmh-81" value="" style="endArrow=none;html=1;rounded=0;" edge="1" parent="1" source="ouHFN66C5PXX2ySk9jmh-74" target="ouHFN66C5PXX2ySk9jmh-6">
          <mxGeometry relative="1" as="geometry">
            <mxPoint x="313" y="632" as="sourcePoint" />
            <mxPoint x="394" y="570" as="targetPoint" />
          </mxGeometry>
        </mxCell>
        <mxCell id="ouHFN66C5PXX2ySk9jmh-82" value="" style="endArrow=none;html=1;rounded=0;" edge="1" parent="1" source="ouHFN66C5PXX2ySk9jmh-71" target="ouHFN66C5PXX2ySk9jmh-6">
          <mxGeometry relative="1" as="geometry">
            <mxPoint x="403" y="660" as="sourcePoint" />
            <mxPoint x="417" y="570" as="targetPoint" />
          </mxGeometry>
        </mxCell>
        <mxCell id="ouHFN66C5PXX2ySk9jmh-83" value="" style="endArrow=none;html=1;rounded=0;" edge="1" parent="1" source="ouHFN66C5PXX2ySk9jmh-78" target="ouHFN66C5PXX2ySk9jmh-6">
          <mxGeometry relative="1" as="geometry">
            <mxPoint x="485" y="631" as="sourcePoint" />
            <mxPoint x="436" y="570" as="targetPoint" />
          </mxGeometry>
        </mxCell>
        <mxCell id="ouHFN66C5PXX2ySk9jmh-84" value="Places" style="shape=rhombus;perimeter=rhombusPerimeter;whiteSpace=wrap;html=1;align=center;" vertex="1" parent="1">
          <mxGeometry x="380" y="150" width="120" height="60" as="geometry" />
        </mxCell>
        <mxCell id="ouHFN66C5PXX2ySk9jmh-88" value="Adds To" style="shape=rhombus;perimeter=rhombusPerimeter;whiteSpace=wrap;html=1;align=center;" vertex="1" parent="1">
          <mxGeometry x="180" y="270" width="120" height="60" as="geometry" />
        </mxCell>
        <mxCell id="ouHFN66C5PXX2ySk9jmh-91" value="User ID (FK)" style="ellipse;whiteSpace=wrap;html=1;align=center;horizontal=1;" vertex="1" parent="1">
          <mxGeometry x="720" y="90" width="100" height="40" as="geometry" />
        </mxCell>
        <mxCell id="ouHFN66C5PXX2ySk9jmh-92" value="C&lt;span style=&quot;background-color: transparent; color: light-dark(rgb(0, 0, 0), rgb(255, 255, 255));&quot;&gt;ontains&lt;/span&gt;" style="shape=rhombus;perimeter=rhombusPerimeter;whiteSpace=wrap;html=1;align=center;" vertex="1" parent="1">
          <mxGeometry x="290" y="460" width="120" height="60" as="geometry" />
        </mxCell>
        <mxCell id="ouHFN66C5PXX2ySk9jmh-96" value="Includes" style="shape=rhombus;perimeter=rhombusPerimeter;whiteSpace=wrap;html=1;align=center;" vertex="1" parent="1">
          <mxGeometry x="550" y="250" width="120" height="60" as="geometry" />
        </mxCell>
        <mxCell id="ouHFN66C5PXX2ySk9jmh-99" value="Part of" style="shape=rhombus;perimeter=rhombusPerimeter;whiteSpace=wrap;html=1;align=center;" vertex="1" parent="1">
          <mxGeometry x="500" y="450" width="120" height="60" as="geometry" />
        </mxCell>
        <mxCell id="ouHFN66C5PXX2ySk9jmh-102" value="" style="endArrow=none;html=1;rounded=0;" edge="1" parent="1" source="ouHFN66C5PXX2ySk9jmh-18" target="ouHFN66C5PXX2ySk9jmh-3">
          <mxGeometry relative="1" as="geometry">
            <mxPoint x="550" y="662" as="sourcePoint" />
            <mxPoint x="482" y="600" as="targetPoint" />
          </mxGeometry>
        </mxCell>
        <mxCell id="ouHFN66C5PXX2ySk9jmh-122" value="" style="endArrow=none;html=1;rounded=0;strokeColor=default;align=center;verticalAlign=middle;fontFamily=Helvetica;fontSize=11;fontColor=default;labelBackgroundColor=default;" edge="1" parent="1" source="ouHFN66C5PXX2ySk9jmh-99" target="ouHFN66C5PXX2ySk9jmh-6">
          <mxGeometry relative="1" as="geometry">
            <mxPoint x="623" y="319" as="sourcePoint" />
            <mxPoint x="628" y="370" as="targetPoint" />
          </mxGeometry>
        </mxCell>
        <mxCell id="ouHFN66C5PXX2ySk9jmh-123" value="" style="endArrow=none;html=1;rounded=0;strokeColor=default;align=center;verticalAlign=middle;fontFamily=Helvetica;fontSize=11;fontColor=default;labelBackgroundColor=default;" edge="1" parent="1" source="ouHFN66C5PXX2ySk9jmh-99" target="ouHFN66C5PXX2ySk9jmh-3">
          <mxGeometry relative="1" as="geometry">
            <mxPoint x="584" y="467" as="sourcePoint" />
            <mxPoint x="618" y="410" as="targetPoint" />
          </mxGeometry>
        </mxCell>
        <mxCell id="ouHFN66C5PXX2ySk9jmh-126" value="" style="endArrow=none;html=1;rounded=0;strokeColor=default;align=center;verticalAlign=middle;fontFamily=Helvetica;fontSize=11;fontColor=default;labelBackgroundColor=default;" edge="1" parent="1" source="ouHFN66C5PXX2ySk9jmh-88" target="ouHFN66C5PXX2ySk9jmh-4">
          <mxGeometry relative="1" as="geometry">
            <mxPoint x="336" y="482" as="sourcePoint" />
            <mxPoint x="278" y="440" as="targetPoint" />
          </mxGeometry>
        </mxCell>
        <mxCell id="ouHFN66C5PXX2ySk9jmh-127" value="" style="endArrow=none;html=1;rounded=0;strokeColor=default;align=center;verticalAlign=middle;fontFamily=Helvetica;fontSize=11;fontColor=default;labelBackgroundColor=default;" edge="1" parent="1" source="ouHFN66C5PXX2ySk9jmh-88" target="ouHFN66C5PXX2ySk9jmh-1">
          <mxGeometry relative="1" as="geometry">
            <mxPoint x="257" y="339" as="sourcePoint" />
            <mxPoint x="252" y="400" as="targetPoint" />
          </mxGeometry>
        </mxCell>
        <mxCell id="ouHFN66C5PXX2ySk9jmh-128" value="" style="fontSize=12;html=1;endArrow=ERmany;startArrow=ERmany;rounded=0;strokeColor=default;align=center;verticalAlign=middle;fontFamily=Helvetica;fontColor=default;labelBackgroundColor=default;" edge="1" parent="1" source="ouHFN66C5PXX2ySk9jmh-4" target="ouHFN66C5PXX2ySk9jmh-92">
          <mxGeometry width="100" height="100" relative="1" as="geometry">
            <mxPoint x="430" y="460" as="sourcePoint" />
            <mxPoint x="530" y="360" as="targetPoint" />
          </mxGeometry>
        </mxCell>
        <mxCell id="ouHFN66C5PXX2ySk9jmh-129" value="" style="fontSize=12;html=1;endArrow=ERmany;startArrow=ERmany;rounded=0;strokeColor=default;align=center;verticalAlign=middle;fontFamily=Helvetica;fontColor=default;labelBackgroundColor=default;" edge="1" parent="1" source="ouHFN66C5PXX2ySk9jmh-3" target="ouHFN66C5PXX2ySk9jmh-92">
          <mxGeometry width="100" height="100" relative="1" as="geometry">
            <mxPoint x="278" y="440" as="sourcePoint" />
            <mxPoint x="336" y="482" as="targetPoint" />
          </mxGeometry>
        </mxCell>
        <mxCell id="ouHFN66C5PXX2ySk9jmh-134" value="N" style="endArrow=none;html=1;rounded=0;strokeColor=default;align=center;verticalAlign=middle;fontFamily=Helvetica;fontSize=11;fontColor=default;labelBackgroundColor=default;shape=link;width=4.545454545454545;" edge="1" parent="1" source="ouHFN66C5PXX2ySk9jmh-6" target="ouHFN66C5PXX2ySk9jmh-96">
          <mxGeometry x="-0.6612" y="-13" relative="1" as="geometry">
            <mxPoint x="530" y="330" as="sourcePoint" />
            <mxPoint x="530" y="280" as="targetPoint" />
            <mxPoint as="offset" />
          </mxGeometry>
        </mxCell>
        <mxCell id="ouHFN66C5PXX2ySk9jmh-135" value="" style="endArrow=none;html=1;rounded=0;strokeColor=default;align=center;verticalAlign=middle;fontFamily=Helvetica;fontSize=11;fontColor=default;labelBackgroundColor=default;" edge="1" parent="1" source="ouHFN66C5PXX2ySk9jmh-1" target="ouHFN66C5PXX2ySk9jmh-84">
          <mxGeometry relative="1" as="geometry">
            <mxPoint x="410" y="330" as="sourcePoint" />
            <mxPoint x="570" y="330" as="targetPoint" />
          </mxGeometry>
        </mxCell>
        <mxCell id="ouHFN66C5PXX2ySk9jmh-136" value="1" style="resizable=0;html=1;whiteSpace=wrap;align=left;verticalAlign=bottom;fontFamily=Helvetica;fontSize=11;fontColor=default;labelBackgroundColor=default;" connectable="0" vertex="1" parent="ouHFN66C5PXX2ySk9jmh-135">
          <mxGeometry x="-1" relative="1" as="geometry" />
        </mxCell>
        <mxCell id="ouHFN66C5PXX2ySk9jmh-138" value="" style="endArrow=none;html=1;rounded=0;strokeColor=default;align=center;verticalAlign=middle;fontFamily=Helvetica;fontSize=11;fontColor=default;labelBackgroundColor=default;" edge="1" parent="1" source="ouHFN66C5PXX2ySk9jmh-84" target="ouHFN66C5PXX2ySk9jmh-5">
          <mxGeometry relative="1" as="geometry">
            <mxPoint x="410" y="330" as="sourcePoint" />
            <mxPoint x="570" y="330" as="targetPoint" />
          </mxGeometry>
        </mxCell>
        <mxCell id="ouHFN66C5PXX2ySk9jmh-140" value="M" style="resizable=0;html=1;whiteSpace=wrap;align=right;verticalAlign=bottom;fontFamily=Helvetica;fontSize=11;fontColor=default;labelBackgroundColor=default;" connectable="0" vertex="1" parent="ouHFN66C5PXX2ySk9jmh-138">
          <mxGeometry x="1" relative="1" as="geometry" />
        </mxCell>
        <mxCell id="ouHFN66C5PXX2ySk9jmh-141" value="" style="endArrow=none;html=1;rounded=0;strokeColor=default;align=center;verticalAlign=middle;fontFamily=Helvetica;fontSize=11;fontColor=default;labelBackgroundColor=default;shape=link;" edge="1" parent="1" source="ouHFN66C5PXX2ySk9jmh-96" target="ouHFN66C5PXX2ySk9jmh-5">
          <mxGeometry relative="1" as="geometry">
            <mxPoint x="410" y="330" as="sourcePoint" />
            <mxPoint x="570" y="330" as="targetPoint" />
          </mxGeometry>
        </mxCell>
        <mxCell id="ouHFN66C5PXX2ySk9jmh-142" value="M" style="resizable=0;html=1;whiteSpace=wrap;align=right;verticalAlign=bottom;fontFamily=Helvetica;fontSize=11;fontColor=default;labelBackgroundColor=default;" connectable="0" vertex="1" parent="ouHFN66C5PXX2ySk9jmh-141">
          <mxGeometry x="1" relative="1" as="geometry">
            <mxPoint y="20" as="offset" />
          </mxGeometry>
        </mxCell>
      </root>
    </mxGraphModel>
  </diagram>
</mxfile>
